M48
METRIC,TZ
VER,1
FMAT,2
T01C0.3F42B423S6H2000
T02C0.8F42B423S6H2000
T03C1.F42B423S6H2000
T04C1.1F42B423S6H2000
T05C1.2F42B423S6H2000
T06C1.6F42B423S6H2000
T07C1.8F42B423S6H2000
T08C2.3F42B423S6H2000
T09C3.3F42B423S6H2000
T10C3.5F42B423S6H2000
DETECT,ON
ATC,ON
%
T01
X285990Y101900
Y100950
X163510Y106290
X164220Y105570
X165040Y104760
X165820Y103980
X166520Y103270
X169180Y106600
X171500Y104800
X174430
X200110Y104500
X200120Y105580
X200990Y105090
X201000Y104140
X201010Y106040
X201200Y108000
X204640Y107700
X205350Y105530
X207750
X208900Y108510
X208950Y105530
X210150
X211350
X211900Y108450
X215380Y103370
X215390Y105270
Y106240
Y104320
Y102410
X216300Y103120
X216320Y105690
X216340Y104320
X219890Y103590
X285990Y104750
Y103800
Y102850
X297310Y104960
Y107010
Y108090
Y105980
X298290Y108540
X298300Y107530
Y105370
Y106440
X303740Y108510
X304880Y108460
X154840Y108700
X155790
X163090Y110880
Y109930
X163100Y113600
X167350Y108710
Y114370
X169420Y111600
X171290Y111070
X174410
X180900Y110790
X182140Y110780
X185100Y108660
Y109610
X197500Y109740
Y108790
Y110690
X201000Y112190
Y110800
X201200Y109400
X207400Y112010
Y114500
X210400Y111900
Y114400
X213220Y114280
X213240Y112120
X214280Y113850
Y112900
X215300
Y113850
Y109150
X216800Y112350
Y114020
Y109350
X217500Y110150
Y114850
Y111550
X218670Y112340
X218990Y113750
Y114700
X242000Y113500
X242210Y111730
X242950Y112340
Y113500
X243900
Y112340
X246290Y113500
Y112340
X247240Y113510
Y112350
X257140Y113020
X260710Y113820
X265150Y114450
X271650Y110390
X281300Y111400
X282100Y112100
X284800Y110250
X285410Y111200
X297050Y114150
Y112450
X297350Y109120
X297650Y113320
Y111620
X298500Y114170
Y110770
Y112470
X299150Y109120
X299350Y111620
Y113320
X300160Y109120
X300200Y110770
Y112470
Y114170
X301050Y111620
Y113320
X301530Y109120
X301900Y112470
Y110770
Y114170
X302730Y109120
X302750Y111620
Y113320
X303740Y113730
Y112590
Y110470
Y111500
Y109470
X304880Y109420
Y113770
Y111500
Y112650
Y110410
X159000Y118000
X159890Y117510
X161150Y117500
X162130Y118810
X168300Y117640
X168340Y116300
X194050Y116180
Y117800
X198950Y118600
X200900Y117800
Y116400
X202380Y119460
X204440Y117560
X205050Y118880
X206540Y119020
X207230Y118290
X208200Y120000
X208900Y120710
Y118240
X210640Y120690
X210650Y119640
X211880Y119280
X211900Y118310
X211910Y120320
X215300Y118000
Y117050
X216800
X216910Y118500
X217500Y116250
X217960Y117550
Y118500
X218990
Y117550
Y116600
Y115650
X221180Y118160
Y117210
Y116260
X222130Y116080
Y118430
X223080Y116080
Y118440
X224070Y116080
X224110Y118440
X226700Y118500
X226710Y116000
X228290Y121530
Y120580
X239750Y120950
X240650Y120000
X243760Y116070
Y117000
Y115140
X246450Y117040
Y115140
Y116090
X248580Y117820
X248830Y121300
X249000Y119800
X249100Y118650
X250600Y119800
X250810Y121300
X251300Y118950
X251310Y115240
X252020Y116030
X252100Y118250
X252140Y121290
X255950Y117920
X257670Y115130
X257790Y116500
X259950Y119000
X260630Y115400
X260650Y119800
X260680Y117100
X262150Y118090
X262850Y119010
X266710Y115200
X267390Y117430
X268360Y117440
X269500Y116880
X270900Y116900
Y120300
X272300Y119860
X273700
X274130Y116510
X274700Y117650
X276330Y115660
X276350Y117300
X277850Y115560
X278550Y116520
X285320Y115210
X290980Y118800
Y116900
Y119750
Y117850
Y120700
X291890Y120230
Y118330
Y119280
Y121180
Y117370
X153000Y122900
X153100Y124650
X153850Y121900
X155950Y121800
X157100Y123850
Y122900
X157290Y126970
X158780Y125640
X158790Y124650
Y123650
Y122650
X159610Y127170
X159640Y122150
Y125150
Y126150
Y124150
Y123150
X162500Y126800
X163210Y126080
X163300Y122050
X164650Y122500
X167010Y124000
X167020Y123050
X167730Y126760
X167830Y122400
X168010Y127890
X170540Y124900
Y123900
X171290Y125960
X171390Y123400
Y124400
X171860Y122400
X225200Y122150
X227210Y127020
X228290Y122480
X228400Y127140
X229390Y126880
X229600Y127900
X235700Y125040
Y126020
X236330Y122850
X236650Y126020
Y125040
Y124080
X237230Y122350
Y123300
X238200Y122350
Y123300
X239150
Y122350
X245750Y127470
Y126450
X246980Y126700
X248300Y125890
X248370Y123040
X251630Y125660
X251790Y123040
X256600Y125450
X256620Y124050
X259230Y125030
X260010Y125770
X261120Y125810
X266520Y124960
X267490Y124970
X282900Y127200
Y124300
X290980Y121650
Y122510
X291900Y123080
Y122130
X154560Y128220
X154660Y131970
X157170Y130540
Y129590
X157200Y133370
Y134320
X159600Y132180
X159610Y128150
Y129650
X163000Y129590
X163420Y128660
X166120Y131970
X166150Y133660
X166670Y129350
X166780Y132940
X166800Y131240
X167100Y130270
X167200Y134480
X170480Y130140
X170700Y131400
X170720Y132900
Y134400
X229250Y129340
X230400Y128610
X234020Y133840
X245610Y128460
X246290Y129170
X248500Y129200
X251700
X263060Y133950
X279670Y134230
X280460Y133510
X280980Y130550
X154560Y139470
X154660Y135720
X157200Y137110
Y138060
Y140810
X159300Y134990
X162280Y137150
X166520Y135180
X166550Y136640
X167210Y137410
X167280Y135900
X170600Y137400
X172070Y140030
X230690Y137650
X230720Y140150
X231650Y137680
X231670Y140150
X233200Y139610
X235600Y136200
Y137800
X236750
Y136200
X237900Y137800
Y136200
X259800Y137650
X259820Y140150
X260750Y137650
X260770Y140150
X262300Y139550
X264700Y136200
Y137800
X265850Y136200
Y137800
X267000
Y136200
X276650Y137370
X277390Y136420
X278130Y135660
X278850Y140160
Y139010
X278860Y134910
X279670Y138190
X280400Y137460
X281620Y140020
X152500Y142200
X154750Y144460
Y145720
X157210Y141760
Y147090
X157350Y143220
X159510Y142490
X162280Y144650
X162300Y146150
X162340Y143150
X167050Y141150
X172080Y141460
X172390Y143060
X172510Y145620
X173310Y141480
X173380Y143050
X173460Y145290
X173510Y147430
X174270Y146720
Y144530
Y142260
X230750Y143900
X231600Y144950
X231750Y143900
X232810Y144950
X232835Y143865
X234660Y146660
X235040Y141550
X235610Y146660
X236010Y141550
X236560Y146660
X236580Y143640
X236960Y141550
X237510Y146660
X238460Y146650
X238650Y144050
X239300Y142180
Y143200
X240200Y143700
X243700Y144800
X245590Y146750
X259850Y143900
X260700Y144950
X260850Y143900
X261950Y143880
Y144950
X263760Y146660
X264140Y141550
X264710Y146660
X265110Y141550
X265660Y146660
X265680Y143530
X266060Y141550
X266610Y146660
X267560Y146650
X267840Y144050
X268400Y142180
Y143200
X269310Y143700
X278850Y141170
X278870Y142210
X283380Y142590
X316000Y147050
X318750Y141150
X152500Y148020
X153460Y151540
Y152490
X154980Y151280
X155600Y152010
X156230Y151280
X157240Y148040
X158380Y151800
X162130Y147650
X162170Y153150
X163590Y153720
X167820Y151900
Y150400
X167840Y153400
X171050Y151270
X172810Y148140
X173540Y148890
X205950Y151350
X207150Y149700
X208100
X209090
X210280Y151350
X223650Y148500
X224110Y149400
X224600Y148500
X225060Y149390
X225550Y148500
X226050Y149390
X227040
X227550Y148500
X228030Y149390
X228500Y148500
X232500Y147850
X242000Y150350
X244670Y151040
X247460Y152720
X248280Y153410
X248990Y152160
X250440Y152640
X251530Y153580
X252750Y148500
X253210Y149390
X253700Y148500
X254160Y149390
X254450Y153450
X254650Y148500
X255150Y149390
X256140
X256650Y148500
X257130Y149400
X257600Y148500
X261600Y147850
X277000Y148530
X280700Y150920
X284510Y153550
X316140Y154130
X318750Y148140
X152950Y157350
X153650Y158160
X158290Y159700
X158620Y158750
X158640Y157350
X159240Y159520
X159450Y157890
Y156750
X162360Y156150
X162600Y154650
X165910Y158660
X166510Y159660
X166860Y158250
X167790Y154900
X167800Y156400
Y160490
X172150Y160550
X173820Y159230
X174480Y159960
X174540Y158530
X192250Y157700
X220730Y157660
X220770Y156160
X225520Y158360
X228760Y158380
X231150Y157660
X232770Y156160
X233550Y158560
X233580Y155260
X234360Y156150
X235150Y155320
X236770Y157450
X236860Y156160
X238350Y158600
X238380Y157590
X238390Y154860
X239140Y156900
X239970Y156160
Y157660
X243170Y156160
Y157660
X244630Y159980
X245955Y159395
X248210Y154370
X249650Y154540
X253500Y154160
X259050Y159880
X260050Y159840
X260200Y155850
X261340
X264940Y156030
X266450Y156000
X272300Y155950
X273150Y156950
X275090Y159790
X276100Y156300
X276120Y155350
X277340Y157240
X277770Y160300
X318750Y155260
X154620Y162010
X155080Y162900
X155250Y161150
X157360Y163700
X158200Y162170
X159340Y166300
Y165350
X159670Y162140
X159950Y163210
X163800Y162080
X164570Y162810
X165270Y163530
X166210Y166440
X166230Y163970
X166400Y161250
X167230Y165260
X173190Y161500
X173820Y162220
X174418Y162968
X175000Y163750
X178930Y163350
X179550Y162550
X180220Y161870
X183100Y165450
X184150Y166200
X185200Y164650
X186250Y162850
X188100Y163200
X208400Y167000
X208770Y166040
X209740Y164940
X209750Y166030
X212440Y166500
X214470Y166940
X215450
X216190Y166150
X216930Y165440
X224770Y166500
X225160Y165550
X225440Y164590
X225880Y163680
X226340Y160880
X226560Y161880
X227770Y161120
X236830Y166100
X237620Y165540
X238570Y165530
X239290Y164860
X239920Y163120
X240270Y164860
X240990Y164140
Y163140
X241980Y164170
X242020Y163190
X246460Y166190
X247100Y166900
X253300Y161420
X253620Y165230
X253830Y162240
X254700Y162750
X262680Y163750
X263410Y164390
X264140Y162190
X264200Y164970
X264620Y163260
X266081Y161511
X266828Y162108
X267570Y162710
X270580Y167140
X270620Y166180
X271580Y166100
X271600Y165150
X274850Y166400
Y164890
X277100Y161700
X289400Y166780
X290200Y163560
X290750Y166600
X291340Y164240
X305450Y166690
X308850Y166010
X310200Y166700
X311550Y166130
X312900Y166150
X314250Y166750
X316000Y161250
X318750Y162280
X157110Y167600
X159600Y168150
X159670Y169650
X159680Y172650
X166100Y167890
X166620Y170140
X166630Y171110
X167010Y169090
X167570Y168240
X170460Y169400
X172070Y172360
X172900Y173130
X190900Y168050
X195200Y171700
Y168450
X196150Y170750
X196200Y171700
X197050Y168500
X211370Y171100
X212380Y171110
X213160Y167240
X214250Y171760
X215090Y172570
X216050Y173520
X220940Y171200
X223960Y167180
X228590Y168190
X229520Y168870
X229600Y172620
X230140Y169650
X231130Y169720
X231950Y172210
X234370Y173460
X235950Y172370
X237570Y173460
X241390Y172490
X242350Y172200
X246880Y171210
X247100Y172160
X258120Y172930
X260990Y168440
X261940Y168450
X262910Y168480
X263900Y168510
X265020Y168530
X266150Y168575
X266220Y171400
X266607Y170413
X267120Y167960
X267300Y169400
X268170Y168150
X269100Y167710
X271530Y172900
X274778Y173222
X274850Y169400
Y170900
X275650Y172640
X281610Y169970
X282930Y173210
X290750Y170800
Y168000
X290940Y169400
X290950Y172200
X293760Y173600
X297920Y170040
X300510Y168430
X300700Y173050
X302450Y172550
X303580Y173450
X306260Y168220
X306600Y169150
X307650Y173400
Y171740
X308850Y169850
X310200
X311550
X312900
X314250
X318750Y169390
X158700Y178590
X159210Y174060
X162300Y180010
Y177160
X166780Y179230
X167730Y179540
X167800Y174190
Y175680
X167940Y177400
X170930Y176980
X171130Y173900
X171750Y176350
X174630Y175420
X175730Y175410
X188180Y175920
X188680Y175060
X189320Y175800
X189900Y176590
X190740Y177290
X199020Y178950
X200130Y178960
X213200Y177520
X214525Y178125
X214550Y179075
X215630Y179090
X216030Y175590
X220970Y174270
X221407Y175217
X222050Y174300
X222070Y175960
X224060Y175290
X224800Y175970
X225280Y179200
X227360Y179900
X230690Y178830
X232710Y174960
X239420Y173910
X242050Y179280
X242760Y178630
X243770Y178550
X244720Y178340
X247150Y178700
X248650
X253060Y176190
X253850Y176890
X254270Y175180
X255067Y175777
X255900Y175180
X256220Y176130
X256633Y178497
X257360Y177780
X258450Y177880
X259460Y177640
X260240Y178250
X261250Y178230
X265020Y177590
X266750Y178480
X269180Y178460
X269840Y177770
X271360Y176400
X271380Y175360
X273150Y178420
X274240Y179100
X274850Y174810
X275550Y176200
X275770Y175240
X282470Y179610
X282680Y177480
Y178660
X282940Y176480
X291300Y175650
Y178270
X293270Y178940
X303500Y176620
X309800Y173750
X310600Y176530
X311490Y173750
X312800Y176630
X313900
X318750Y176300
X156570Y181560
X157200Y184290
X157320Y180370
X157510Y182650
X158190Y184350
X159830Y186150
X162310Y184150
X162320Y185150
Y183160
X167690Y180600
X170510Y184660
X170530Y180610
X178690Y185020
X179660Y185010
X180300Y185750
X194490Y182920
X195110Y183910
X197040Y184630
X200490Y181500
X200500Y180550
X211300Y186550
X212210Y183850
X219500Y184780
X222320Y184480
X229650Y186350
X231220Y182830
X234890Y186050
X236240Y184310
X236320Y182420
X237000Y185990
X237580Y180300
X241060Y181580
X241350Y180490
X246610Y182830
X247730Y184220
Y185520
X249300Y185300
X249680Y183580
X249970Y184530
X249980Y186050
X252600Y183150
X254800Y183950
X259250Y182650
X262150
X267450Y182600
X268950Y184200
X270150Y185600
X271780Y180200
X272210Y182090
X272500Y181050
X273050Y182600
X273180Y180210
X275150Y181100
X279160Y184220
X280140
X280300Y185500
X282000Y184760
X291300Y183380
Y180790
X293390Y183630
X293430Y181490
X152200Y187870
Y191370
X153590Y191950
X159470Y190330
X164060Y189650
X164450Y188750
X164650Y191420
X164670Y190430
X164850Y192370
X167210Y189700
X167820Y191180
Y193070
X167930Y188400
X172050Y192530
X172610Y191010
X173320Y190260
X173710Y192900
X174040Y189500
X174840Y188780
X175550Y188050
X176340Y187340
X176900Y191360
X177050Y193100
Y186650
X177500Y192200
X178800Y191160
Y192110
Y193060
X189870Y190380
X203710Y191850
X204730Y191870
X208010Y189580
X208200Y191030
X210510Y190600
X211230Y187900
X211390Y191950
X215970Y188090
X216850Y187430
X217050Y190200
X218940Y187450
X219900Y188480
X220240Y192140
X223200Y191950
X223700Y192450
Y191450
X224200Y191950
X224950Y188470
X226350Y189600
X227560Y189770
X228630Y190750
X229490Y191380
X231290Y187850
X232140Y186720
X232580Y190400
X232610Y192660
X233610Y190430
X234650Y187050
X235360Y191820
X235650Y187900
X235680Y190000
X236250Y191820
X237950Y190200
X239630Y188520
X240600Y189430
X240630Y191670
X241420Y192350
X241530Y187030
X243150Y191070
X243760Y188060
X243900Y191720
X244710Y188060
X244910Y192050
X247150Y186930
X248040Y192880
X248200Y191500
X249090Y192910
X249600Y191400
X252830Y192250
X256150Y189960
X258200Y189970
X261250Y191500
X263100
X269020Y187170
X275880Y190900
X280290Y192200
X280300Y189580
X280980Y187420
X292300Y187900
Y189300
X153590Y195750
X154370Y198850
X154990Y194680
X155510Y193700
X157260Y193720
X158660Y199470
Y198520
X159410Y197450
X162350Y193970
X163000Y197430
X164810Y196230
X164820Y195280
Y197230
X164830Y194330
Y198220
X167740Y197990
X174390Y193750
X175400
X176350
X189290Y198000
X191820
X199920Y196480
X201930Y193380
X202350Y199360
X202630Y194140
X203520Y194600
X204280Y193890
X205150Y199340
X206100Y196820
X206700Y199400
X208150
X208200Y196750
Y197700
X209550Y199400
X210950
X212100Y193300
X224160Y195790
X225210Y195760
X226600Y197670
Y198620
X228600Y193570
X232613Y193610
X233463Y194653
X234900Y196450
X236350
X237090Y199230
X239460Y196710
X239960Y197210
Y196210
X240460Y196710
X241210Y193300
X242690Y194400
X242820Y199000
X243780Y197450
X243950Y196490
X246830Y194500
X246870Y197450
X247120Y198850
X247150Y196000
X249650Y197850
X249990Y198980
X251100Y195810
X252250Y197820
X253800Y193990
X255600Y195880
X256300Y197950
X257400Y193900
X258300Y195750
X259480Y198350
X260280Y195430
X260980Y199460
X270630Y195480
X271500Y195000
X272590Y198300
X273350Y197710
X273580Y193640
X274390Y195350
X275390
X275570Y193460
X284750Y197400
X286750Y197900
X301300Y193450
X309500
X311700
X313900
X154150Y200250
X157600Y201370
X162220Y205350
X166020Y199930
X167950Y205350
X173650Y204450
X175590Y204920
X176540Y204650
X177490Y205000
X179900Y204720
X182380Y202530
Y203480
X200890Y202810
X202290Y202660
X203750Y202400
X204500Y205410
X205150Y202360
X206700Y202410
X207800Y202740
X208900Y202930
X210300Y202760
X211400Y205370
X213670Y199850
X223900Y202360
X227570Y201500
X228520Y201960
X240710Y201500
X241510Y202100
X245750Y202050
X246790Y201310
X251050Y200520
X258550Y200530
X260980Y203160
X266100Y202450
X268300Y201430
X269100Y200550
X269490Y204600
X270690Y202380
X271660Y202020
X273650Y204460
X275850Y204950
X276700Y206050
X280500
X284720Y204030
X286250Y204850
X165080Y207350
X198830Y206800
X201000
X212600
X214750
X216020Y207900
X219350
X232350
X269830Y207910
X276950Y207650
X280250
X282100Y206210
X271760Y207910
T02
X292300Y192970
Y191700
Y195510
Y194240
Y198050
Y196780
Y199320
T03
X234100Y108100
X236350Y103800
X238350
X240350
X240600Y108100
X180435Y116990
X181705Y114450
X182975Y116990
X184245Y114450
X185515Y116990
X186785Y114450
X188055Y116990
X189325Y114450
X190595Y116990
X191865Y114450
X234100Y112600
X240600
X186500Y193600
X187000Y195100
X188500Y193600
X189500Y195100
X190500Y193600
X191500Y195100
X192500Y193600
X194500
X194000Y195100
T04
X289440Y145140
Y142600
X291980
Y145140
X294520
Y142600
X297060
Y145140
X299600
Y142600
X302140Y145140
Y142600
X304680
Y145140
X307220
Y142600
X309760
Y145140
X312300
Y142600
X289440Y147680
Y150220
Y152760
X291980Y147680
Y150220
Y152760
X294520Y147680
Y150220
Y152760
X297060Y147680
Y150220
Y152760
X299600Y147680
Y150220
Y152760
X302140Y147680
Y150220
Y152760
X304680Y147680
Y150220
Y152760
X307220Y147680
Y150220
Y152760
X309760Y147680
Y150220
Y152760
X312300Y147680
Y150220
Y152760
T05
X179520Y104020
X182060
X190240
X192780
X247000Y105550
Y108090
Y103010
X250000Y105550
Y108090
Y103010
X252950Y108090
Y103010
Y105550
X255940
Y103010
Y108090
X258920
Y105550
Y103010
X261890
Y105550
Y108090
X264900
Y105550
Y103010
X267900Y108090
Y105550
Y103010
X271150Y105570
Y103030
X274150Y105570
Y103030
X277140Y105570
Y103030
X280110
Y105570
X283100Y103030
Y105570
X152580Y112360
Y114900
Y117440
X155120Y112360
Y114900
Y117440
X286630Y131700
X289170
X291710
X294250
X285850Y136080
Y143700
Y147210
Y149750
Y141160
Y138620
Y152290
X291170Y137700
X293710
X296250
X298790
X301330
X303870
X306410
X308950
X311490
X314030
X152800Y162300
Y164840
X285850Y154830
Y164990
Y157370
Y162450
Y159910
X289420Y157500
X289480Y161900
X291960Y157500
X292020Y161900
X294500Y157500
X294560Y161900
X297040Y157500
X297100Y161900
X299580Y157500
X299640Y161900
X302120Y157500
X302180Y161900
X304660Y157500
X304720Y161900
X307200Y157500
X309740
X312280
X152800Y169920
Y167380
X153580Y174650
X156120
X284680Y174860
Y172320
Y182480
Y185020
Y177400
Y179940
X287220Y174860
Y172320
Y182480
Y185020
Y177400
Y179940
X282780Y202300
X284680Y195180
Y192640
Y190100
Y187560
X287220Y192640
Y195180
Y187560
Y190100
X285320Y202300
T06
X234250Y103800
X242450
T07
X178405Y111150
X193895
X301350Y127200
Y132300
X307450Y132350
X312550
T08
X183930Y197100
X197070
T09
X224700Y105700
X229700Y108700
X224700Y111700
T10
X154000Y104000
X292150Y104800
X302150
X316000Y104000
X175450Y123900
X220450
X232400Y122600
X277200
X315200Y124350
Y114350
X154000Y205000
X175450Y198900
X220450
X232400Y200200
X277200
X298000Y205000
M30
